<svg width="57" height="58" viewBox="0 0 57 58" fill="none" xmlns="http://www.w3.org/2000/svg">
<circle cx="29" cy="29" r="28" fill="white"/>
<circle cx="29" cy="29" r="27.5" stroke="black" stroke-opacity="0.08"/>
<path d="M39.7151 54.8686C34.5988 56.9879 28.969 57.5424 23.5375 56.462C18.106 55.3816 13.1169 52.7149 9.20102 48.799C5.28515 44.8831 2.61841 39.894 1.53802 34.4625C0.457639 29.0311 1.01213 23.4012 3.13139 18.2849C5.25064 13.1685 8.83947 8.79553 13.444 5.71885C18.0486 2.64217 23.4621 1 29 1" stroke="#0381FF"/>
<path d="M23.6461 39.4933H34.3537C36.5133 39.4933 37.6283 38.3582 37.6283 36.1886V27.1986H30.0948C28.8392 27.1986 28.2365 26.596 28.2365 25.3404V17.7265H23.6461C21.4966 17.7265 20.3716 18.8616 20.3716 21.0413V36.1886C20.3716 38.3582 21.4966 39.4933 23.6461 39.4933ZM30.2856 25.7321H37.5278C37.4676 25.2701 37.1361 24.8382 36.6138 24.3058L31.1194 18.7411C30.6171 18.2288 30.1651 17.8873 29.7031 17.827V25.1495C29.7131 25.5413 29.9039 25.7321 30.2856 25.7321ZM25.1026 31.6484C24.6707 31.6484 24.3593 31.337 24.3593 30.9353C24.3593 30.5335 24.6707 30.2221 25.1026 30.2221H32.9274C33.3392 30.2221 33.6606 30.5335 33.6606 30.9353C33.6606 31.337 33.3392 31.6484 32.9274 31.6484H25.1026ZM25.1026 35.4152C24.6707 35.4152 24.3593 35.1038 24.3593 34.702C24.3593 34.3002 24.6707 33.9888 25.1026 33.9888H32.9274C33.3392 33.9888 33.6606 34.3002 33.6606 34.702C33.6606 35.1038 33.3392 35.4152 32.9274 35.4152H25.1026Z" fill="#0381FF"/>
</svg>
